{"title":"THE PRESTIGE IN HINDI &amp; ENG BY GAMBLER85","uid":6308196,"size":1041867571,"categoryP":"video","categoryS":"hd___movies","magnet":"?xt=urn:btih:98d357409ec6dd6a7e73dd10bd2b5116b5319702&amp;dn=THE+PRESTIGE+IN+HINDI+%26+ENG+BY+GAMBLER85&amp;tr=udp%3A%2F%2Ftracker.openbittorrent.com%3A80&amp;tr=udp%3A%2F%2Fopen.demonii.com%3A1337&amp;tr=udp%3A%2F%2Ftracker.coppersurfer.tk%3A6969&amp;tr=udp%3A%2F%2Fexodus.desync.com%3A6969","seeders":0,"leechers":1,"uploader":"gambler85","files":1,"time":1302433864,"description":"Audio #1\nID                               : 2\nLanguage                         : Hindi\nFormat                           : MPEG Audio\nFormat version                   : Version 1\nFormat profile                   : Layer 3\nCodec ID                         : A_MPEG/L3\nCodec ID/Hint                    : MP3\nDuration                         : 2h 10mn\nBit rate mode                    : Constant\nBit rate                         : 320 Kbps\nChannel(s)                       : 2 channels\nSampling rate                    : 44.1 KHz\nResolution                       : 16 bits\nStream size                      : 299 MiB (30%)\nWriting library                  : LAME3.98.2\n\nAudio #2\nID                               : 3\nLanguage                         : English\nFormat                           : MPEG Audio\nFormat version                   : Version 1\nFormat profile                   : Layer 3\nCodec ID                         : A_MPEG/L3\nCodec ID/Hint                    : MP3\nDuration                         : 2h 10mn\nBit rate mode                    : Constant\nBit rate                         : 96.0 Kbps\nChannel(s)                       : 2 channels\nSampling rate                    : 48.0 KHz\nResolution                       : 16 bits\nStream size                      : 89.6 MiB (9%)\n\n\nBY GAMBLER85\n\nscreenshots:-\n &lt;a href=&quot;\nhttp://www.freeimagehosting.net/uploads/0ca801cbc0.png&quot; rel=&quot;nofollow&quot; target=&quot;_NEW&quot;&gt;\nhttp://www.freeimagehosting.net/uploads/0ca801cbc0.png&lt;/a&gt; &lt;a href=&quot;\nhttp://www.freeimagehosting.net/uploads/710c348e3e.png&quot; rel=&quot;nofollow&quot; target=&quot;_NEW&quot;&gt;\nhttp://www.freeimagehosting.net/uploads/710c348e3e.png&lt;/a&gt; &lt;a href=&quot;\nhttp://www.freeimagehosting.net/uploads/1a0dd2c1f9.png&quot; rel=&quot;nofollow&quot; target=&quot;_NEW&quot;&gt;\nhttp://www.freeimagehosting.net/uploads/1a0dd2c1f9.png&lt;/a&gt; &lt;a href=&quot;\nhttp://www.freeimagehosting.net/uploads/90146920f6.png&quot; rel=&quot;nofollow&quot; target=&quot;_NEW&quot;&gt;\nhttp://www.freeimagehosting.net/uploads/90146920f6.png&lt;/a&gt; &lt;a href=&quot;\nhttp://www.freeimagehosting.net/uploads/72b833bf5a.png&quot; rel=&quot;nofollow&quot; target=&quot;_NEW&quot;&gt;\nhttp://www.freeimagehosting.net/uploads/72b833bf5a.png&lt;/a&gt; &lt;a href=&quot;\nhttp://www.freeimagehosting.net/uploads/e8a71eaf9c.png&quot; rel=&quot;nofollow&quot; target=&quot;_NEW&quot;&gt;\nhttp://www.freeimagehosting.net/uploads/e8a71eaf9c.png&lt;/a&gt; &lt;a href=&quot;\nhttp://www.freeimagehosting.net/uploads/b20b3a8e8e.png&quot; rel=&quot;nofollow&quot; target=&quot;_NEW&quot;&gt;\nhttp://www.freeimagehosting.net/uploads/b20b3a8e8e.png&lt;/a&gt;\n","torrent":{"xt":"urn:btih:98d357409ec6dd6a7e73dd10bd2b5116b5319702","amp;dn":"THE+PRESTIGE+IN+HINDI+%26+ENG+BY+GAMBLER85","amp;tr":["udp%3A%2F%2Ftracker.openbittorrent.com%3A80","udp%3A%2F%2Fopen.demonii.com%3A1337","udp%3A%2F%2Ftracker.coppersurfer.tk%3A6969","udp%3A%2F%2Fexodus.desync.com%3A6969"],"infoHash":"98d357409ec6dd6a7e73dd10bd2b5116b5319702","infoHashBuffer":{"type":"Buffer","data":[152,211,87,64,158,198,221,106,126,115,221,16,189,43,81,22,181,49,151,2]},"announce":[],"urlList":[]}}